# xmcd
#
# Track frame offsets: 
#        150
#        12800
#        24732
#        38280
#        49595
#        61265
#        75415
#        86442
#        98300
#        109045
#        120080
#        130270
#        143120
#        155285
#        166800
#        178870
#        189820
#        201565
#        211925
#        225720
#        236825
#        249047
#        262690
#        274100
#        285732
#        298297
#        310360
#        322107
#        334327
#
# Disc length: 4631 seconds
#
# Revision: 2
# Processed by: cddbd v1.5.2PL0 Copyright (c) Steve Scherf et al.
# Submitted via: ExactAudioCopyFreeDBPlugin 1.0
#
DISCID=8212151d
DTITLE=Jack Guthrie - Jack Guthrie_Oklahoma Hills
DYEAR=1991
DGENRE=Country
TTITLE0=Oklahoma Hills
TTITLE1=When the Cactus is in Bloom
TTITLE2=Next to the Soil
TTITLE3=Shame on you
TTITLE4=I'm Brandin' My Darlin' With My Heart
TTITLE5=Careless Darlin'
TTITLE6=Oakie Boogie
TTITLE7=In the Shadows of My Heart
TTITLE8=For Oklahoma, I'm Yearnin'
TTITLE9=No Need to Knock on My Door
TTITLE10=Shut That Gate
TTITLE11=I'm Tellin' You
TTITLE12=Chained To A Memory
TTITLE13=Look Out For the Crossing
TTITLE14=Dallas Darlin'
TTITLE15=Colorado Blues
TTITLE16=Welcome Home Stranger
TTITLE17=I Still Love You as I Did in Yesterday
TTITLE18=Oklahoma's Calling
TTITLE19=The Clouds Rained Trouble Down
TTITLE20=Answer To Moonlight and Skies
TTITLE21=Please, Oh Please
TTITLE22=I Loved You Once But I Can't Trust You Now
TTITLE23=Out Of Sight - Out Of Mind
TTITLE24=I'm Building A Stairway To Heaven
TTITLE25=Ida Red
TTITLE26=I Told You Once
TTITLE27=San Antonio Rose
TTITLE28=You Laughed and I Cried
EXTD=
EXTT0=1945
EXTT1=1946
EXTT2=1946
EXTT3=1947
EXTT4=1945
EXTT5=1991
EXTT6=1946
EXTT7=1948
EXTT8=1991
EXTT9=1948
EXTT10=1991
EXTT11=1946
EXTT12=1946
EXTT13=1947
EXTT14=1991
EXTT15=1949
EXTT16=1949
EXTT17=1991
EXTT18=1947
EXTT19=1946
EXTT20=1948
EXTT21=1947
EXTT22=1946
EXTT23=1991
EXTT24=1947
EXTT25=1948
EXTT26=1991
EXTT27=1991
EXTT28=1947
PLAYORDER=
